<?xml version="1.0" standalone="no"?>
<!DOCTYPE svg PUBLIC "-//W3C//DTD SVG 20010904//EN"
 "http://www.w3.org/TR/2001/REC-SVG-20010904/DTD/svg10.dtd">
<svg version="1.0" xmlns="http://www.w3.org/2000/svg"
 width="128.000000pt" height="128.000000pt" viewBox="0 0 128.000000 128.000000"
 preserveAspectRatio="xMidYMid meet">
<metadata>
Created by potrace 1.14, written by Peter Selinger 2001-2017
</metadata>
<g transform="translate(0.000000,128.000000) scale(0.100000,-0.100000)"
fill="#000000" stroke="none">
<path d="M758 1191 c-32 -11 -70 -22 -85 -26 -27 -6 -27 -6 -8 15 19 21 19 21
-1 14 -24 -9 -93 -62 -116 -89 -9 -11 -23 -45 -32 -75 -16 -61 -8 -109 27
-148 24 -26 23 -50 -1 -29 -10 10 -22 14 -26 10 -4 -4 -4 1 0 12 5 14 4 17 -3
10 -13 -12 -33 -126 -22 -120 4 3 10 -1 13 -7 3 -7 4 -2 2 12 -2 14 0 36 5 50
6 19 8 12 7 -30 -1 -76 0 -80 17 -80 9 0 18 -13 22 -31 3 -18 9 -26 13 -19 4
7 10 -8 14 -34 6 -41 9 -45 26 -36 16 8 17 15 9 44 -6 21 -6 43 0 59 5 14 7
34 4 46 -3 12 -1 21 6 21 6 0 11 7 11 15 0 23 19 18 32 -9 8 -20 7 -28 -6 -41
-9 -9 -16 -24 -16 -33 0 -9 -3 -34 -6 -54 -6 -36 -5 -38 18 -38 23 0 57 -25
47 -34 -2 -1 -28 -16 -58 -32 -29 -16 -65 -43 -78 -61 -14 -18 -31 -33 -37
-33 -6 0 -29 -12 -50 -26 -31 -21 -45 -25 -75 -19 -54 10 -63 10 -99 1 -26 -6
-38 -4 -52 9 -26 24 -53 118 -52 185 2 221 6 306 15 311 6 4 6 17 -1 35 l-10
29 -11 -28 c-6 -16 -11 -70 -11 -120 0 -51 -7 -137 -15 -192 -9 -59 -12 -126
-8 -163 5 -59 4 -64 -16 -69 -13 -3 -32 -28 -52 -69 -18 -35 -36 -64 -40 -64
-5 0 -9 -5 -9 -11 0 -6 -11 -24 -25 -41 -19 -23 -25 -41 -25 -80 l0 -50 543 7
c387 5 546 10 556 18 12 10 14 9 9 -3 -4 -12 5 -15 48 -17 60 -3 63 1 43 70
-8 29 -18 40 -45 52 -20 8 -53 28 -74 45 -23 18 -41 26 -45 20 -3 -5 -21 -10
-40 -10 -19 0 -36 -4 -39 -9 -7 -11 28 -21 81 -21 45 0 68 -18 34 -27 -12 -3
-21 -10 -21 -15 0 -5 -4 -6 -10 -3 -9 5 -15 -23 -11 -47 2 -12 -17 -9 -25 3
-3 6 -15 9 -25 6 -11 -3 -32 -1 -47 4 -15 5 -43 11 -63 14 -19 3 -45 14 -56
24 -30 28 -127 74 -220 105 -46 15 -83 30 -83 33 0 3 8 2 18 -2 36 -14 220
-65 233 -65 8 1 3 8 -11 16 -25 16 -14 13 42 -9 22 -9 31 -7 63 17 42 32 56
62 49 103 -7 36 -13 42 -25 20 -14 -25 -32 -21 -26 5 6 22 6 22 -9 4 -9 -14
-17 -17 -24 -10 -7 7 -2 15 15 24 14 7 25 17 25 22 0 4 16 8 35 8 36 0 75 28
75 53 0 9 -2 9 -8 0 -14 -22 -128 -15 -143 9 -10 16 56 30 118 24 40 -4 42 -2
49 26 9 43 -17 55 -98 49 -16 -1 -28 3 -28 8 0 6 -9 11 -20 11 -11 0 -20 5
-20 11 0 5 -5 7 -12 3 -8 -5 -9 2 -5 25 6 28 1 38 -33 75 -22 24 -40 50 -40
59 0 18 24 29 45 20 9 -3 24 2 35 12 14 13 23 14 38 6 19 -10 20 -13 6 -72 -8
-33 -19 -69 -25 -80 -24 -46 26 -52 103 -13 50 25 50 26 27 38 -25 12 -27 21
-32 133 -1 23 -5 39 -10 36 -10 -6 -117 36 -137 54 -13 12 -13 13 4 7 13 -5
17 -4 12 4 -5 9 25 11 113 9 89 -1 121 -5 121 -14 0 -7 5 -13 11 -13 8 0 10
18 7 55 -6 67 -46 136 -106 182 -51 39 -95 42 -184 14z m248 -147 c-22 -15
-77 -17 -116 -3 -18 6 -12 7 25 4 31 -3 60 0 75 8 31 17 42 10 16 -9z m-209
-144 c17 -13 20 -20 11 -20 -8 0 -23 9 -33 20 -10 11 -15 20 -11 20 4 0 19 -9
33 -20z m-86 -43 c-10 -9 -11 -8 -5 6 3 10 9 15 12 12 3 -3 0 -11 -7 -18z
m260 -264 c10 -10 10 -16 1 -25 -9 -9 -12 -9 -12 0 0 7 -17 12 -42 13 -24 0
-37 3 -30 6 6 2 10 8 8 11 -8 13 63 7 75 -5z m-240 -60 c13 -15 12 -15 -8 -4
-24 12 -29 21 -14 21 5 0 15 -7 22 -17z m-431 -198 c0 -3 -12 -24 -27 -46 -22
-34 -24 -42 -12 -50 22 -16 -32 1 -59 17 -25 17 -21 37 6 27 14 -6 15 -4 4 9
-10 13 -9 16 9 21 12 3 18 10 14 16 -4 7 7 11 29 11 20 0 36 -2 36 -5z m130
-24 c20 -6 22 -8 8 -13 -16 -7 -88 8 -88 17 0 7 51 4 80 -4z m145 -48 c86 -28
122 -47 59 -32 -97 23 -197 56 -184 62 8 3 22 3 30 0 8 -2 51 -16 95 -30z
m-198 15 c34 -12 44 -28 19 -28 -24 0 -66 19 -66 30 0 13 6 13 47 -2z m123
-80 c0 -4 -19 1 -42 13 -53 26 -51 25 -44 38 8 12 86 -35 86 -51z m-175 32
c-3 -5 -14 -10 -23 -9 -14 0 -13 2 3 9 27 11 27 11 20 0z m-55 -70 c0 -5 -7
-10 -16 -10 -8 0 -12 5 -9 10 3 6 10 10 16 10 5 0 9 -4 9 -10z"/>
<path d="M254 1032 c-14 -8 -22 -62 -12 -77 6 -10 11 -118 9 -193 l-1 -34 28
24 c16 13 27 29 24 35 -2 7 -8 10 -13 8 -17 -11 -27 75 -20 175 1 19 -2 71 -4
70 0 0 -5 -4 -11 -8z"/>
<path d="M416 1028 c-2 -7 -11 -40 -19 -73 -8 -33 -24 -88 -35 -123 -11 -34
-16 -59 -10 -56 13 8 47 84 48 106 0 9 5 29 12 45 14 35 18 51 21 86 3 27 -10
38 -17 15z"/>
<path d="M463 970 c0 -30 2 -43 4 -27 2 15 2 39 0 55 -2 15 -4 2 -4 -28z"/>
<path d="M1000 900 c-22 -11 -37 -14 -41 -8 -4 6 -6 -1 -6 -14 0 -25 33 -48
69 -48 23 0 24 26 1 34 -14 6 -14 8 5 22 21 15 30 35 15 33 -5 -1 -24 -9 -43
-19z"/>
<path d="M446 869 c-8 -42 0 -50 9 -9 4 17 5 34 2 36 -2 3 -7 -10 -11 -27z"/>
<path d="M428 807 c-4 -9 -18 -22 -30 -27 -13 -5 -17 -9 -10 -9 6 -1 12 -8 12
-16 0 -8 4 -15 10 -15 14 0 32 38 28 63 -3 19 -4 20 -10 4z"/>
<path d="M1021 732 c-6 -12 -11 -27 -11 -34 1 -7 8 0 16 15 9 16 13 31 11 34
-3 2 -10 -4 -16 -15z"/>
<path d="M465 730 c-3 -5 -1 -10 4 -10 6 0 11 5 11 10 0 6 -2 10 -4 10 -3 0
-8 -4 -11 -10z"/>
<path d="M462 660 c0 -19 2 -27 5 -17 2 9 2 25 0 35 -3 9 -5 1 -5 -18z"/>
<path d="M595 571 c-3 -5 -1 -12 5 -16 12 -7 30 2 30 16 0 12 -27 12 -35 0z"/>
<path d="M940 346 c0 -2 8 -10 18 -17 15 -13 16 -12 3 4 -13 16 -21 21 -21 13z"/>
</g>
</svg>
